<?xml version="1.0" encoding="UTF-8"?>
<?xml-stylesheet href="https://cdnjs.cloudflare.com/ajax/libs/font-awesome/6.6.0/css/all.min.css" type="text/css"?>
<svg aria-roledescription="er" role="graphics-document document" viewBox="0 0 1559.185791015625 610.6666870117188" style="max-width: 100%;" xmlns="http://www.w3.org/2000/svg" width="100%" id="graph-div" height="100%" xmlns:xlink="http://www.w3.org/1999/xlink"><style>#graph-div{font-family:"trebuchet ms",verdana,arial,sans-serif;font-size:16px;fill:#333;}#graph-div .error-icon{fill:#552222;}#graph-div .error-text{fill:#552222;stroke:#552222;}#graph-div .edge-thickness-normal{stroke-width:1px;}#graph-div .edge-thickness-thick{stroke-width:3.5px;}#graph-div .edge-pattern-solid{stroke-dasharray:0;}#graph-div .edge-thickness-invisible{stroke-width:0;fill:none;}#graph-div .edge-pattern-dashed{stroke-dasharray:3;}#graph-div .edge-pattern-dotted{stroke-dasharray:2;}#graph-div .marker{fill:#333333;stroke:#333333;}#graph-div .marker.cross{stroke:#333333;}#graph-div svg{font-family:"trebuchet ms",verdana,arial,sans-serif;font-size:16px;}#graph-div p{margin:0;}#graph-div .entityBox{fill:#ECECFF;stroke:#9370DB;}#graph-div .attributeBoxOdd{fill:#ffffff;stroke:#9370DB;}#graph-div .attributeBoxEven{fill:#f2f2f2;stroke:#9370DB;}#graph-div .relationshipLabelBox{fill:hsl(80, 100%, 96.2745098039%);opacity:0.7;background-color:hsl(80, 100%, 96.2745098039%);}#graph-div .relationshipLabelBox rect{opacity:0.5;}#graph-div .relationshipLine{stroke:#333333;}#graph-div .entityTitleText{text-anchor:middle;font-size:18px;fill:#333;}#graph-div #MD_PARENT_START{fill:#f5f5f5!important;stroke:#333333!important;stroke-width:1;}#graph-div #MD_PARENT_END{fill:#f5f5f5!important;stroke:#333333!important;stroke-width:1;}#graph-div :root{--mermaid-font-family:"trebuchet ms",verdana,arial,sans-serif;}</style><g></g><defs><marker orient="auto" markerHeight="240" markerWidth="190" refY="7" refX="0" id="MD_PARENT_START"><path d="M 18,7 L9,13 L1,7 L9,1 Z"></path></marker></defs><defs><marker orient="auto" markerHeight="28" markerWidth="20" refY="7" refX="19" id="MD_PARENT_END"><path d="M 18,7 L9,13 L1,7 L9,1 Z"></path></marker></defs><defs><marker orient="auto" markerHeight="18" markerWidth="18" refY="9" refX="0" id="ONLY_ONE_START"><path d="M9,0 L9,18 M15,0 L15,18" fill="none" stroke="gray"></path></marker></defs><defs><marker orient="auto" markerHeight="18" markerWidth="18" refY="9" refX="18" id="ONLY_ONE_END"><path d="M3,0 L3,18 M9,0 L9,18" fill="none" stroke="gray"></path></marker></defs><defs><marker orient="auto" markerHeight="18" markerWidth="30" refY="9" refX="0" id="ZERO_OR_ONE_START"><circle r="6" cy="9" cx="21" fill="white" stroke="gray"></circle><path d="M9,0 L9,18" fill="none" stroke="gray"></path></marker></defs><defs><marker orient="auto" markerHeight="18" markerWidth="30" refY="9" refX="30" id="ZERO_OR_ONE_END"><circle r="6" cy="9" cx="9" fill="white" stroke="gray"></circle><path d="M21,0 L21,18" fill="none" stroke="gray"></path></marker></defs><defs><marker orient="auto" markerHeight="36" markerWidth="45" refY="18" refX="18" id="ONE_OR_MORE_START"><path d="M0,18 Q 18,0 36,18 Q 18,36 0,18 M42,9 L42,27" fill="none" stroke="gray"></path></marker></defs><defs><marker orient="auto" markerHeight="36" markerWidth="45" refY="18" refX="27" id="ONE_OR_MORE_END"><path d="M3,9 L3,27 M9,18 Q27,0 45,18 Q27,36 9,18" fill="none" stroke="gray"></path></marker></defs><defs><marker orient="auto" markerHeight="36" markerWidth="57" refY="18" refX="18" id="ZERO_OR_MORE_START"><circle r="6" cy="18" cx="48" fill="white" stroke="gray"></circle><path d="M0,18 Q18,0 36,18 Q18,36 0,18" fill="none" stroke="gray"></path></marker></defs><defs><marker orient="auto" markerHeight="36" markerWidth="57" refY="18" refX="39" id="ZERO_OR_MORE_END"><circle r="6" cy="18" cx="9" fill="white" stroke="gray"></circle><path d="M21,18 Q39,0 57,18 Q39,36 21,18" fill="none" stroke="gray"></path></marker></defs><path style="stroke: gray; fill: none;" marker-start="url(#ONLY_ONE_START)" marker-end="url(#ZERO_OR_ONE_END)" d="M717.092,59.608L614.746,72.451C512.4,85.294,307.709,110.98,205.364,137.49C103.018,164,103.018,191.333,103.018,205L103.018,218.667" class="er relationshipLine"></path><path style="stroke: gray; fill: none;" marker-start="url(#ONLY_ONE_START)" marker-end="url(#ZERO_OR_ONE_END)" d="M717.092,64.075L660.775,76.174C604.459,88.272,491.826,112.469,435.51,140.012C379.193,167.556,379.193,198.444,379.193,213.889L379.193,229.333" class="er relationshipLine"></path><path style="stroke: gray; fill: none;" marker-start="url(#ONLY_ONE_START)" marker-end="url(#ZERO_OR_ONE_END)" d="M717.092,85.541L703.863,94.062C690.635,102.583,664.178,119.625,650.95,136.479C637.721,153.333,637.721,170,637.721,178.333L637.721,186.667" class="er relationshipLine"></path><path style="stroke: gray; fill: none;" marker-start="url(#ONLY_ONE_START)" marker-end="url(#ZERO_OR_ONE_END)" d="M817.092,85.541L830.32,94.062C843.548,102.583,870.005,119.625,883.233,147.146C896.462,174.667,896.462,212.667,896.462,231.667L896.462,250.667" class="er relationshipLine"></path><path style="stroke: gray; fill: none;" marker-start="url(#ONLY_ONE_START)" marker-end="url(#ZERO_OR_ONE_END)" d="M817.092,63.125L879.681,75.382C942.271,87.639,1067.449,112.153,1130.039,141.632C1192.628,171.111,1192.628,205.556,1192.628,222.778L1192.628,240" class="er relationshipLine"></path><path style="stroke: gray; fill: none;" marker-start="url(#ONLY_ONE_START)" marker-end="url(#ZERO_OR_ONE_END)" d="M817.092,59.284L925.461,72.181C1033.83,85.078,1250.568,110.872,1358.937,140.992C1467.306,171.111,1467.306,205.556,1467.306,222.778L1467.306,240" class="er relationshipLine"></path><path style="stroke: gray; fill: none;" marker-start="url(#ONLY_ONE_START)" marker-end="url(#ONE_OR_MORE_END)" d="M103.018,349.333L103.018,363C103.018,376.667,103.018,404,182.426,433.211C261.834,462.421,420.65,493.509,500.058,509.053L579.465,524.597" class="er relationshipLine"></path><path style="stroke: gray; fill: none;" marker-start="url(#ONLY_ONE_START)" marker-end="url(#ONE_OR_MORE_END)" d="M379.193,338.667L379.193,354.111C379.193,369.556,379.193,400.444,412.572,429.402C445.951,458.36,512.708,485.388,546.087,498.901L579.465,512.415" class="er relationshipLine"></path><path style="stroke: gray; fill: none;" marker-start="url(#ONLY_ONE_START)" marker-end="url(#ONE_OR_MORE_END)" d="M637.721,381.333L637.721,389.667C637.721,398,637.721,414.667,637.721,431.333C637.721,448,637.721,464.667,637.721,473L637.721,481.333" class="er relationshipLine"></path><path style="stroke: gray; fill: none;" marker-start="url(#ONLY_ONE_START)" marker-end="url(#ONE_OR_MORE_END)" d="M1192.628,328L1192.628,345.222C1192.628,362.444,1192.628,396.889,1109.853,429.724C1027.078,462.559,861.528,493.786,778.753,509.399L695.977,525.012" class="er relationshipLine"></path><path style="stroke: gray; fill: none;" marker-start="url(#ONLY_ONE_START)" marker-end="url(#ONE_OR_MORE_END)" d="M1467.306,328L1467.306,345.222C1467.306,362.444,1467.306,396.889,1338.751,430.331C1210.196,463.772,953.087,496.211,824.532,512.431L695.977,528.65" class="er relationshipLine"></path><g transform="translate(717.091609954834,20 )" id="entity-dimcity-54313acb-d0aa-5167-9df3-fc0d5e031b34"><rect height="66.66666793823242" width="100" y="0" x="0" class="er entityBox"></rect><text transform="translate(50,12)" style="dominant-baseline: middle; text-anchor: middle; font-size: 12px;" y="0" x="0" id="text-entity-dimcity-54313acb-d0aa-5167-9df3-fc0d5e031b34" class="er entityLabel">dim_city</text><rect height="21.33333396911621" width="39.09258460998535" y="24" x="0" class="er attributeBoxOdd"></rect><text transform="translate(5,34.666666984558105)" style="dominant-baseline: middle; font-size: 10.2px;" y="0" x="0" id="text-entity-dimcity-54313acb-d0aa-5167-9df3-fc0d5e031b34-attr-1-type" class="er entityLabel">string</text><rect height="21.33333396911621" width="60.90741539001465" y="24" x="39.09258460998535" class="er attributeBoxOdd"></rect><text transform="translate(44.09258460998535,34.666666984558105)" style="dominant-baseline: middle; font-size: 10.2px;" y="0" x="0" id="text-entity-dimcity-54313acb-d0aa-5167-9df3-fc0d5e031b34-attr-1-name" class="er entityLabel">city_id</text><rect height="21.33333396911621" width="39.09258460998535" y="45.33333396911621" x="0" class="er attributeBoxEven"></rect><text transform="translate(5,56.000000953674316)" style="dominant-baseline: middle; font-size: 10.2px;" y="0" x="0" id="text-entity-dimcity-54313acb-d0aa-5167-9df3-fc0d5e031b34-attr-2-type" class="er entityLabel">string</text><rect height="21.33333396911621" width="60.90741539001465" y="45.33333396911621" x="39.09258460998535" class="er attributeBoxEven"></rect><text transform="translate(44.09258460998535,56.000000953674316)" style="dominant-baseline: middle; font-size: 10.2px;" y="0" x="0" id="text-entity-dimcity-54313acb-d0aa-5167-9df3-fc0d5e031b34-attr-2-name" class="er entityLabel">city_name</text></g><g transform="translate(579.4654998779297,481.33333587646484 )" id="entity-dimdate-f71c89f9-6754-5c5b-add1-c121347e485d"><rect height="109.33333587646484" width="116.51189804077148" y="0" x="0" class="er entityBox"></rect><text transform="translate(58.25594902038574,12)" style="dominant-baseline: middle; text-anchor: middle; font-size: 12px;" y="0" x="0" id="text-entity-dimdate-f71c89f9-6754-5c5b-add1-c121347e485d" class="er entityLabel">dim_date</text><rect height="21.33333396911621" width="35.9389762878418" y="24" x="0" class="er attributeBoxOdd"></rect><text transform="translate(5,34.666666984558105)" style="dominant-baseline: middle; font-size: 10.2px;" y="0" x="0" id="text-entity-dimdate-f71c89f9-6754-5c5b-add1-c121347e485d-attr-1-type" class="er entityLabel">date</text><rect height="21.33333396911621" width="80.57292175292969" y="24" x="35.9389762878418" class="er attributeBoxOdd"></rect><text transform="translate(40.9389762878418,34.666666984558105)" style="dominant-baseline: middle; font-size: 10.2px;" y="0" x="0" id="text-entity-dimdate-f71c89f9-6754-5c5b-add1-c121347e485d-attr-1-name" class="er entityLabel">date</text><rect height="21.33333396911621" width="35.9389762878418" y="45.33333396911621" x="0" class="er attributeBoxEven"></rect><text transform="translate(5,56.000000953674316)" style="dominant-baseline: middle; font-size: 10.2px;" y="0" x="0" id="text-entity-dimdate-f71c89f9-6754-5c5b-add1-c121347e485d-attr-2-type" class="er entityLabel">date</text><rect height="21.33333396911621" width="80.57292175292969" y="45.33333396911621" x="35.9389762878418" class="er attributeBoxEven"></rect><text transform="translate(40.9389762878418,56.000000953674316)" style="dominant-baseline: middle; font-size: 10.2px;" y="0" x="0" id="text-entity-dimdate-f71c89f9-6754-5c5b-add1-c121347e485d-attr-2-name" class="er entityLabel">start_of_month</text><rect height="21.33333396911621" width="35.9389762878418" y="66.66666793823242" x="0" class="er attributeBoxOdd"></rect><text transform="translate(5,77.33333492279053)" style="dominant-baseline: middle; font-size: 10.2px;" y="0" x="0" id="text-entity-dimdate-f71c89f9-6754-5c5b-add1-c121347e485d-attr-3-type" class="er entityLabel">string</text><rect height="21.33333396911621" width="80.57292175292969" y="66.66666793823242" x="35.9389762878418" class="er attributeBoxOdd"></rect><text transform="translate(40.9389762878418,77.33333492279053)" style="dominant-baseline: middle; font-size: 10.2px;" y="0" x="0" id="text-entity-dimdate-f71c89f9-6754-5c5b-add1-c121347e485d-attr-3-name" class="er entityLabel">month_name</text><rect height="21.33333396911621" width="35.9389762878418" y="88.00000190734863" x="0" class="er attributeBoxEven"></rect><text transform="translate(5,98.66666889190674)" style="dominant-baseline: middle; font-size: 10.2px;" y="0" x="0" id="text-entity-dimdate-f71c89f9-6754-5c5b-add1-c121347e485d-attr-4-type" class="er entityLabel">string</text><rect height="21.33333396911621" width="80.57292175292969" y="88.00000190734863" x="35.9389762878418" class="er attributeBoxEven"></rect><text transform="translate(40.9389762878418,98.66666889190674)" style="dominant-baseline: middle; font-size: 10.2px;" y="0" x="0" id="text-entity-dimdate-f71c89f9-6754-5c5b-add1-c121347e485d-attr-4-name" class="er entityLabel">day_type</text></g><g transform="translate(20,218.66666412353516 )" id="entity-factpassengersummary-685ed676-244f-5ddd-8ef0-b92cb3c941d5"><rect height="130.66666984558105" width="166.0358123779297" y="0" x="0" class="er entityBox"></rect><text transform="translate(83.01790618896484,12)" style="dominant-baseline: middle; text-anchor: middle; font-size: 12px;" y="0" x="0" id="text-entity-factpassengersummary-685ed676-244f-5ddd-8ef0-b92cb3c941d5" class="er entityLabel">fact_passenger_summary</text><rect height="21.33333396911621" width="53.64364433288574" y="24" x="0" class="er attributeBoxOdd"></rect><text transform="translate(5,34.666666984558105)" style="dominant-baseline: middle; font-size: 10.2px;" y="0" x="0" id="text-entity-factpassengersummary-685ed676-244f-5ddd-8ef0-b92cb3c941d5-attr-1-type" class="er entityLabel">date</text><rect height="21.33333396911621" width="112.39216804504395" y="24" x="53.64364433288574" class="er attributeBoxOdd"></rect><text transform="translate(58.64364433288574,34.666666984558105)" style="dominant-baseline: middle; font-size: 10.2px;" y="0" x="0" id="text-entity-factpassengersummary-685ed676-244f-5ddd-8ef0-b92cb3c941d5-attr-1-name" class="er entityLabel">month</text><rect height="21.33333396911621" width="53.64364433288574" y="45.33333396911621" x="0" class="er attributeBoxEven"></rect><text transform="translate(5,56.000000953674316)" style="dominant-baseline: middle; font-size: 10.2px;" y="0" x="0" id="text-entity-factpassengersummary-685ed676-244f-5ddd-8ef0-b92cb3c941d5-attr-2-type" class="er entityLabel">string</text><rect height="21.33333396911621" width="112.39216804504395" y="45.33333396911621" x="53.64364433288574" class="er attributeBoxEven"></rect><text transform="translate(58.64364433288574,56.000000953674316)" style="dominant-baseline: middle; font-size: 10.2px;" y="0" x="0" id="text-entity-factpassengersummary-685ed676-244f-5ddd-8ef0-b92cb3c941d5-attr-2-name" class="er entityLabel">city_id</text><rect height="21.33333396911621" width="53.64364433288574" y="66.66666793823242" x="0" class="er attributeBoxOdd"></rect><text transform="translate(5,77.33333492279053)" style="dominant-baseline: middle; font-size: 10.2px;" y="0" x="0" id="text-entity-factpassengersummary-685ed676-244f-5ddd-8ef0-b92cb3c941d5-attr-3-type" class="er entityLabel">int</text><rect height="21.33333396911621" width="112.39216804504395" y="66.66666793823242" x="53.64364433288574" class="er attributeBoxOdd"></rect><text transform="translate(58.64364433288574,77.33333492279053)" style="dominant-baseline: middle; font-size: 10.2px;" y="0" x="0" id="text-entity-factpassengersummary-685ed676-244f-5ddd-8ef0-b92cb3c941d5-attr-3-name" class="er entityLabel">total_passengers</text><rect height="21.33333396911621" width="53.64364433288574" y="88.00000190734863" x="0" class="er attributeBoxEven"></rect><text transform="translate(5,98.66666889190674)" style="dominant-baseline: middle; font-size: 10.2px;" y="0" x="0" id="text-entity-factpassengersummary-685ed676-244f-5ddd-8ef0-b92cb3c941d5-attr-4-type" class="er entityLabel">int</text><rect height="21.33333396911621" width="112.39216804504395" y="88.00000190734863" x="53.64364433288574" class="er attributeBoxEven"></rect><text transform="translate(58.64364433288574,98.66666889190674)" style="dominant-baseline: middle; font-size: 10.2px;" y="0" x="0" id="text-entity-factpassengersummary-685ed676-244f-5ddd-8ef0-b92cb3c941d5-attr-4-name" class="er entityLabel">new_passengers</text><rect height="21.33333396911621" width="53.64364433288574" y="109.33333587646484" x="0" class="er attributeBoxOdd"></rect><text transform="translate(5,120.00000286102295)" style="dominant-baseline: middle; font-size: 10.2px;" y="0" x="0" id="text-entity-factpassengersummary-685ed676-244f-5ddd-8ef0-b92cb3c941d5-attr-5-type" class="er entityLabel">int</text><rect height="21.33333396911621" width="112.39216804504395" y="109.33333587646484" x="53.64364433288574" class="er attributeBoxOdd"></rect><text transform="translate(58.64364433288574,120.00000286102295)" style="dominant-baseline: middle; font-size: 10.2px;" y="0" x="0" id="text-entity-factpassengersummary-685ed676-244f-5ddd-8ef0-b92cb3c941d5-attr-5-name" class="er entityLabel">repeat_passengers</text></g><g transform="translate(286.0358123779297,229.33333206176758 )" id="entity-dimrepeattripdistribution-69b98d11-204e-5974-be52-a33b8844c06e"><rect height="109.33333587646484" width="186.3151092529297" y="0" x="0" class="er entityBox"></rect><text transform="translate(93.15755462646484,12)" style="dominant-baseline: middle; text-anchor: middle; font-size: 12px;" y="0" x="0" id="text-entity-dimrepeattripdistribution-69b98d11-204e-5974-be52-a33b8844c06e" class="er entityLabel">dim_repeat_trip_distribution</text><rect height="21.33333396911621" width="50.01497459411621" y="24" x="0" class="er attributeBoxOdd"></rect><text transform="translate(5,34.666666984558105)" style="dominant-baseline: middle; font-size: 10.2px;" y="0" x="0" id="text-entity-dimrepeattripdistribution-69b98d11-204e-5974-be52-a33b8844c06e-attr-1-type" class="er entityLabel">date</text><rect height="21.33333396911621" width="136.30013465881348" y="24" x="50.01497459411621" class="er attributeBoxOdd"></rect><text transform="translate(55.01497459411621,34.666666984558105)" style="dominant-baseline: middle; font-size: 10.2px;" y="0" x="0" id="text-entity-dimrepeattripdistribution-69b98d11-204e-5974-be52-a33b8844c06e-attr-1-name" class="er entityLabel">month</text><rect height="21.33333396911621" width="50.01497459411621" y="45.33333396911621" x="0" class="er attributeBoxEven"></rect><text transform="translate(5,56.000000953674316)" style="dominant-baseline: middle; font-size: 10.2px;" y="0" x="0" id="text-entity-dimrepeattripdistribution-69b98d11-204e-5974-be52-a33b8844c06e-attr-2-type" class="er entityLabel">string</text><rect height="21.33333396911621" width="136.30013465881348" y="45.33333396911621" x="50.01497459411621" class="er attributeBoxEven"></rect><text transform="translate(55.01497459411621,56.000000953674316)" style="dominant-baseline: middle; font-size: 10.2px;" y="0" x="0" id="text-entity-dimrepeattripdistribution-69b98d11-204e-5974-be52-a33b8844c06e-attr-2-name" class="er entityLabel">city_id</text><rect height="21.33333396911621" width="50.01497459411621" y="66.66666793823242" x="0" class="er attributeBoxOdd"></rect><text transform="translate(5,77.33333492279053)" style="dominant-baseline: middle; font-size: 10.2px;" y="0" x="0" id="text-entity-dimrepeattripdistribution-69b98d11-204e-5974-be52-a33b8844c06e-attr-3-type" class="er entityLabel">string</text><rect height="21.33333396911621" width="136.30013465881348" y="66.66666793823242" x="50.01497459411621" class="er attributeBoxOdd"></rect><text transform="translate(55.01497459411621,77.33333492279053)" style="dominant-baseline: middle; font-size: 10.2px;" y="0" x="0" id="text-entity-dimrepeattripdistribution-69b98d11-204e-5974-be52-a33b8844c06e-attr-3-name" class="er entityLabel">trip_count</text><rect height="21.33333396911621" width="50.01497459411621" y="88.00000190734863" x="0" class="er attributeBoxEven"></rect><text transform="translate(5,98.66666889190674)" style="dominant-baseline: middle; font-size: 10.2px;" y="0" x="0" id="text-entity-dimrepeattripdistribution-69b98d11-204e-5974-be52-a33b8844c06e-attr-4-type" class="er entityLabel">int</text><rect height="21.33333396911621" width="136.30013465881348" y="88.00000190734863" x="50.01497459411621" class="er attributeBoxEven"></rect><text transform="translate(55.01497459411621,98.66666889190674)" style="dominant-baseline: middle; font-size: 10.2px;" y="0" x="0" id="text-entity-dimrepeattripdistribution-69b98d11-204e-5974-be52-a33b8844c06e-attr-4-name" class="er entityLabel">repeat_passenger_count</text></g><g transform="translate(572.3509216308594,186.66666412353516 )" id="entity-facttrips-b61da6db-49aa-5747-b20a-3866f11ffb66"><rect height="194.6666717529297" width="130.74106216430664" y="0" x="0" class="er entityBox"></rect><text transform="translate(65.37053108215332,12)" style="dominant-baseline: middle; text-anchor: middle; font-size: 12px;" y="0" x="0" id="text-entity-facttrips-b61da6db-49aa-5747-b20a-3866f11ffb66" class="er entityLabel">fact_trips</text><rect height="21.33333396911621" width="35.9389762878418" y="24" x="0" class="er attributeBoxOdd"></rect><text transform="translate(5,34.666666984558105)" style="dominant-baseline: middle; font-size: 10.2px;" y="0" x="0" id="text-entity-facttrips-b61da6db-49aa-5747-b20a-3866f11ffb66-attr-1-type" class="er entityLabel">string</text><rect height="21.33333396911621" width="94.80208587646484" y="24" x="35.9389762878418" class="er attributeBoxOdd"></rect><text transform="translate(40.9389762878418,34.666666984558105)" style="dominant-baseline: middle; font-size: 10.2px;" y="0" x="0" id="text-entity-facttrips-b61da6db-49aa-5747-b20a-3866f11ffb66-attr-1-name" class="er entityLabel">trip_id</text><rect height="21.33333396911621" width="35.9389762878418" y="45.33333396911621" x="0" class="er attributeBoxEven"></rect><text transform="translate(5,56.000000953674316)" style="dominant-baseline: middle; font-size: 10.2px;" y="0" x="0" id="text-entity-facttrips-b61da6db-49aa-5747-b20a-3866f11ffb66-attr-2-type" class="er entityLabel">date</text><rect height="21.33333396911621" width="94.80208587646484" y="45.33333396911621" x="35.9389762878418" class="er attributeBoxEven"></rect><text transform="translate(40.9389762878418,56.000000953674316)" style="dominant-baseline: middle; font-size: 10.2px;" y="0" x="0" id="text-entity-facttrips-b61da6db-49aa-5747-b20a-3866f11ffb66-attr-2-name" class="er entityLabel">date</text><rect height="21.33333396911621" width="35.9389762878418" y="66.66666793823242" x="0" class="er attributeBoxOdd"></rect><text transform="translate(5,77.33333492279053)" style="dominant-baseline: middle; font-size: 10.2px;" y="0" x="0" id="text-entity-facttrips-b61da6db-49aa-5747-b20a-3866f11ffb66-attr-3-type" class="er entityLabel">string</text><rect height="21.33333396911621" width="94.80208587646484" y="66.66666793823242" x="35.9389762878418" class="er attributeBoxOdd"></rect><text transform="translate(40.9389762878418,77.33333492279053)" style="dominant-baseline: middle; font-size: 10.2px;" y="0" x="0" id="text-entity-facttrips-b61da6db-49aa-5747-b20a-3866f11ffb66-attr-3-name" class="er entityLabel">city_id</text><rect height="21.33333396911621" width="35.9389762878418" y="88.00000190734863" x="0" class="er attributeBoxEven"></rect><text transform="translate(5,98.66666889190674)" style="dominant-baseline: middle; font-size: 10.2px;" y="0" x="0" id="text-entity-facttrips-b61da6db-49aa-5747-b20a-3866f11ffb66-attr-4-type" class="er entityLabel">string</text><rect height="21.33333396911621" width="94.80208587646484" y="88.00000190734863" x="35.9389762878418" class="er attributeBoxEven"></rect><text transform="translate(40.9389762878418,98.66666889190674)" style="dominant-baseline: middle; font-size: 10.2px;" y="0" x="0" id="text-entity-facttrips-b61da6db-49aa-5747-b20a-3866f11ffb66-attr-4-name" class="er entityLabel">passenger_type</text><rect height="21.33333396911621" width="35.9389762878418" y="109.33333587646484" x="0" class="er attributeBoxOdd"></rect><text transform="translate(5,120.00000286102295)" style="dominant-baseline: middle; font-size: 10.2px;" y="0" x="0" id="text-entity-facttrips-b61da6db-49aa-5747-b20a-3866f11ffb66-attr-5-type" class="er entityLabel">float</text><rect height="21.33333396911621" width="94.80208587646484" y="109.33333587646484" x="35.9389762878418" class="er attributeBoxOdd"></rect><text transform="translate(40.9389762878418,120.00000286102295)" style="dominant-baseline: middle; font-size: 10.2px;" y="0" x="0" id="text-entity-facttrips-b61da6db-49aa-5747-b20a-3866f11ffb66-attr-5-name" class="er entityLabel">distance_travelled</text><rect height="21.33333396911621" width="35.9389762878418" y="130.66666984558105" x="0" class="er attributeBoxEven"></rect><text transform="translate(5,141.33333683013916)" style="dominant-baseline: middle; font-size: 10.2px;" y="0" x="0" id="text-entity-facttrips-b61da6db-49aa-5747-b20a-3866f11ffb66-attr-6-type" class="er entityLabel">float</text><rect height="21.33333396911621" width="94.80208587646484" y="130.66666984558105" x="35.9389762878418" class="er attributeBoxEven"></rect><text transform="translate(40.9389762878418,141.33333683013916)" style="dominant-baseline: middle; font-size: 10.2px;" y="0" x="0" id="text-entity-facttrips-b61da6db-49aa-5747-b20a-3866f11ffb66-attr-6-name" class="er entityLabel">fare_amount</text><rect height="21.33333396911621" width="35.9389762878418" y="152.00000381469727" x="0" class="er attributeBoxOdd"></rect><text transform="translate(5,162.66667079925537)" style="dominant-baseline: middle; font-size: 10.2px;" y="0" x="0" id="text-entity-facttrips-b61da6db-49aa-5747-b20a-3866f11ffb66-attr-7-type" class="er entityLabel">int</text><rect height="21.33333396911621" width="94.80208587646484" y="152.00000381469727" x="35.9389762878418" class="er attributeBoxOdd"></rect><text transform="translate(40.9389762878418,162.66667079925537)" style="dominant-baseline: middle; font-size: 10.2px;" y="0" x="0" id="text-entity-facttrips-b61da6db-49aa-5747-b20a-3866f11ffb66-attr-7-name" class="er entityLabel">passenger_rating</text><rect height="21.33333396911621" width="35.9389762878418" y="173.33333778381348" x="0" class="er attributeBoxEven"></rect><text transform="translate(5,184.00000476837158)" style="dominant-baseline: middle; font-size: 10.2px;" y="0" x="0" id="text-entity-facttrips-b61da6db-49aa-5747-b20a-3866f11ffb66-attr-8-type" class="er entityLabel">int</text><rect height="21.33333396911621" width="94.80208587646484" y="173.33333778381348" x="35.9389762878418" class="er attributeBoxEven"></rect><text transform="translate(40.9389762878418,184.00000476837158)" style="dominant-baseline: middle; font-size: 10.2px;" y="0" x="0" id="text-entity-facttrips-b61da6db-49aa-5747-b20a-3866f11ffb66-attr-8-name" class="er entityLabel">driver_rating</text></g><g transform="translate(803.0919799804688,250.66666793823242 )" id="entity-citytargetpassengerrating-070d2d30-e6f4-5dab-ade5-c8c9b8bef30d"><rect height="66.66666793823242" width="186.73959350585938" y="0" x="0" class="er entityBox"></rect><text transform="translate(93.36979675292969,12)" style="dominant-baseline: middle; text-anchor: middle; font-size: 12px;" y="0" x="0" id="text-entity-citytargetpassengerrating-070d2d30-e6f4-5dab-ade5-c8c9b8bef30d" class="er entityLabel">city_target_passenger_rating</text><rect height="21.33333396911621" width="40.439680099487305" y="24" x="0" class="er attributeBoxOdd"></rect><text transform="translate(5,34.666666984558105)" style="dominant-baseline: middle; font-size: 10.2px;" y="0" x="0" id="text-entity-citytargetpassengerrating-070d2d30-e6f4-5dab-ade5-c8c9b8bef30d-attr-1-type" class="er entityLabel">string</text><rect height="21.33333396911621" width="146.29991340637207" y="24" x="40.439680099487305" class="er attributeBoxOdd"></rect><text transform="translate(45.439680099487305,34.666666984558105)" style="dominant-baseline: middle; font-size: 10.2px;" y="0" x="0" id="text-entity-citytargetpassengerrating-070d2d30-e6f4-5dab-ade5-c8c9b8bef30d-attr-1-name" class="er entityLabel">city_id</text><rect height="21.33333396911621" width="40.439680099487305" y="45.33333396911621" x="0" class="er attributeBoxEven"></rect><text transform="translate(5,56.000000953674316)" style="dominant-baseline: middle; font-size: 10.2px;" y="0" x="0" id="text-entity-citytargetpassengerrating-070d2d30-e6f4-5dab-ade5-c8c9b8bef30d-attr-2-type" class="er entityLabel">float</text><rect height="21.33333396911621" width="146.29991340637207" y="45.33333396911621" x="40.439680099487305" class="er attributeBoxEven"></rect><text transform="translate(45.439680099487305,56.000000953674316)" style="dominant-baseline: middle; font-size: 10.2px;" y="0" x="0" id="text-entity-citytargetpassengerrating-070d2d30-e6f4-5dab-ade5-c8c9b8bef30d-attr-2-name" class="er entityLabel">target_avg_passenger_rating</text></g><g transform="translate(1089.831558227539,240 )" id="entity-monthlytargetnewpassengers-db2de5fb-653c-59cc-b738-ed522fbf8ae6"><rect height="88.00000190734863" width="205.59375" y="0" x="0" class="er entityBox"></rect><text transform="translate(102.796875,12)" style="dominant-baseline: middle; text-anchor: middle; font-size: 12px;" y="0" x="0" id="text-entity-monthlytargetnewpassengers-db2de5fb-653c-59cc-b738-ed522fbf8ae6" class="er entityLabel">monthly_target_new_passengers</text><rect height="21.33333396911621" width="62.433027267456055" y="24" x="0" class="er attributeBoxOdd"></rect><text transform="translate(5,34.666666984558105)" style="dominant-baseline: middle; font-size: 10.2px;" y="0" x="0" id="text-entity-monthlytargetnewpassengers-db2de5fb-653c-59cc-b738-ed522fbf8ae6-attr-1-type" class="er entityLabel">date</text><rect height="21.33333396911621" width="143.16072273254395" y="24" x="62.433027267456055" class="er attributeBoxOdd"></rect><text transform="translate(67.43302726745605,34.666666984558105)" style="dominant-baseline: middle; font-size: 10.2px;" y="0" x="0" id="text-entity-monthlytargetnewpassengers-db2de5fb-653c-59cc-b738-ed522fbf8ae6-attr-1-name" class="er entityLabel">month</text><rect height="21.33333396911621" width="62.433027267456055" y="45.33333396911621" x="0" class="er attributeBoxEven"></rect><text transform="translate(5,56.000000953674316)" style="dominant-baseline: middle; font-size: 10.2px;" y="0" x="0" id="text-entity-monthlytargetnewpassengers-db2de5fb-653c-59cc-b738-ed522fbf8ae6-attr-2-type" class="er entityLabel">string</text><rect height="21.33333396911621" width="143.16072273254395" y="45.33333396911621" x="62.433027267456055" class="er attributeBoxEven"></rect><text transform="translate(67.43302726745605,56.000000953674316)" style="dominant-baseline: middle; font-size: 10.2px;" y="0" x="0" id="text-entity-monthlytargetnewpassengers-db2de5fb-653c-59cc-b738-ed522fbf8ae6-attr-2-name" class="er entityLabel">city_id</text><rect height="21.33333396911621" width="62.433027267456055" y="66.66666793823242" x="0" class="er attributeBoxOdd"></rect><text transform="translate(5,77.33333492279053)" style="dominant-baseline: middle; font-size: 10.2px;" y="0" x="0" id="text-entity-monthlytargetnewpassengers-db2de5fb-653c-59cc-b738-ed522fbf8ae6-attr-3-type" class="er entityLabel">int</text><rect height="21.33333396911621" width="143.16072273254395" y="66.66666793823242" x="62.433027267456055" class="er attributeBoxOdd"></rect><text transform="translate(67.43302726745605,77.33333492279053)" style="dominant-baseline: middle; font-size: 10.2px;" y="0" x="0" id="text-entity-monthlytargetnewpassengers-db2de5fb-653c-59cc-b738-ed522fbf8ae6-attr-3-name" class="er entityLabel">target_new_passengers</text></g><g transform="translate(1395.425308227539,240 )" id="entity-monthlytargettrips-1a89c452-b7d9-58db-8562-432376251ee9"><rect height="88.00000190734863" width="143.7604217529297" y="0" x="0" class="er entityBox"></rect><text transform="translate(71.88021087646484,12)" style="dominant-baseline: middle; text-anchor: middle; font-size: 12px;" y="0" x="0" id="text-entity-monthlytargettrips-1a89c452-b7d9-58db-8562-432376251ee9" class="er entityLabel">monthly_target_trips</text><rect height="21.33333396911621" width="44.14657402038574" y="24" x="0" class="er attributeBoxOdd"></rect><text transform="translate(5,34.666666984558105)" style="dominant-baseline: middle; font-size: 10.2px;" y="0" x="0" id="text-entity-monthlytargettrips-1a89c452-b7d9-58db-8562-432376251ee9-attr-1-type" class="er entityLabel">date</text><rect height="21.33333396911621" width="99.61384773254395" y="24" x="44.14657402038574" class="er attributeBoxOdd"></rect><text transform="translate(49.14657402038574,34.666666984558105)" style="dominant-baseline: middle; font-size: 10.2px;" y="0" x="0" id="text-entity-monthlytargettrips-1a89c452-b7d9-58db-8562-432376251ee9-attr-1-name" class="er entityLabel">month</text><rect height="21.33333396911621" width="44.14657402038574" y="45.33333396911621" x="0" class="er attributeBoxEven"></rect><text transform="translate(5,56.000000953674316)" style="dominant-baseline: middle; font-size: 10.2px;" y="0" x="0" id="text-entity-monthlytargettrips-1a89c452-b7d9-58db-8562-432376251ee9-attr-2-type" class="er entityLabel">string</text><rect height="21.33333396911621" width="99.61384773254395" y="45.33333396911621" x="44.14657402038574" class="er attributeBoxEven"></rect><text transform="translate(49.14657402038574,56.000000953674316)" style="dominant-baseline: middle; font-size: 10.2px;" y="0" x="0" id="text-entity-monthlytargettrips-1a89c452-b7d9-58db-8562-432376251ee9-attr-2-name" class="er entityLabel">city_id</text><rect height="21.33333396911621" width="44.14657402038574" y="66.66666793823242" x="0" class="er attributeBoxOdd"></rect><text transform="translate(5,77.33333492279053)" style="dominant-baseline: middle; font-size: 10.2px;" y="0" x="0" id="text-entity-monthlytargettrips-1a89c452-b7d9-58db-8562-432376251ee9-attr-3-type" class="er entityLabel">int</text><rect height="21.33333396911621" width="99.61384773254395" y="66.66666793823242" x="44.14657402038574" class="er attributeBoxOdd"></rect><text transform="translate(49.14657402038574,77.33333492279053)" style="dominant-baseline: middle; font-size: 10.2px;" y="0" x="0" id="text-entity-monthlytargettrips-1a89c452-b7d9-58db-8562-432376251ee9-attr-3-name" class="er entityLabel">total_target_trips</text></g><rect height="14" width="17.71875" y="96.05608367919922" x="379.7773742675781" class="er relationshipLabelBox"></rect><text style="text-anchor: middle; dominant-baseline: middle; font-size: 12px;" y="103.05608367919922" x="388.6367492675781" id="rel116" class="er relationshipLabel">has</text><rect height="14" width="17.71875" y="103.19967651367188" x="510.26824951171875" class="er relationshipLabelBox"></rect><text style="text-anchor: middle; dominant-baseline: middle; font-size: 12px;" y="110.19967651367188" x="519.1276245117188" id="rel117" class="er relationshipLabel">has</text><rect height="14" width="17.71875" y="118.31319427490234" x="652.5764770507812" class="er relationshipLabelBox"></rect><text style="text-anchor: middle; dominant-baseline: middle; font-size: 12px;" y="125.31319427490234" x="661.4358520507812" id="rel118" class="er relationshipLabel">has</text><rect height="14" width="17.71875" y="146.36053466796875" x="877.0761108398438" class="er relationshipLabelBox"></rect><text style="text-anchor: middle; dominant-baseline: middle; font-size: 12px;" y="153.36053466796875" x="885.9354858398438" id="rel119" class="er relationshipLabel">has</text><rect height="14" width="17.71875" y="103.19872283935547" x="1028.1593017578125" class="er relationshipLabelBox"></rect><text style="text-anchor: middle; dominant-baseline: middle; font-size: 12px;" y="110.19872283935547" x="1037.0186767578125" id="rel120" class="er relationshipLabel">has</text><rect height="14" width="17.71875" y="97.26922607421875" x="1161.1815185546875" class="er relationshipLabelBox"></rect><text style="text-anchor: middle; dominant-baseline: middle; font-size: 12px;" y="104.26922607421875" x="1170.0408935546875" id="rel121" class="er relationshipLabel">has</text><rect height="14" width="22.822917938232422" y="463.86834716796875" x="306.2489719390869" class="er relationshipLabelBox"></rect><text style="text-anchor: middle; dominant-baseline: middle; font-size: 12px;" y="470.86834716796875" x="317.6604309082031" id="rel122" class="er relationshipLabel">uses</text><rect height="14" width="22.822917938232422" y="446.67340087890625" x="436.72641944885254" class="er relationshipLabelBox"></rect><text style="text-anchor: middle; dominant-baseline: middle; font-size: 12px;" y="453.67340087890625" x="448.13787841796875" id="rel123" class="er relationshipLabel">uses</text><rect height="14" width="22.822917938232422" y="424.3330078125" x="626.309549331665" class="er relationshipLabelBox"></rect><text style="text-anchor: middle; dominant-baseline: middle; font-size: 12px;" y="431.3330078125" x="637.7210083007812" id="rel124" class="er relationshipLabel">uses</text><rect height="14" width="22.822917938232422" y="461.9970703125" x="963.4910678863525" class="er relationshipLabelBox"></rect><text style="text-anchor: middle; dominant-baseline: middle; font-size: 12px;" y="468.9970703125" x="974.9025268554688" id="rel125" class="er relationshipLabel">uses</text><rect height="14" width="22.822917938232422" y="466.7671203613281" x="1097.2534580230713" class="er relationshipLabelBox"></rect><text style="text-anchor: middle; dominant-baseline: middle; font-size: 12px;" y="473.7671203613281" x="1108.6649169921875" id="rel126" class="er relationshipLabel">uses</text></svg>